<svg width="10" height="10" viewBox="0 0 10 10" fill="none" xmlns="http://www.w3.org/2000/svg">
<g id="fi_8583896" clip-path="url(#clip0_26012_150033)">
<g id="Group">
<g id="Group_2">
<g id="Group_3">
<path id="Vector" d="M0.0933411 9.37812L2.9762 4.96484L5.04205 7.03069L0.628772 9.91355C0.227047 10.176 -0.169071 9.77984 0.0933411 9.37812Z" fill="url(#paint0_linear_26012_150033)"/>
<path id="Vector_2" d="M0.0933411 9.37812L2.9762 4.96484L5.04205 7.03069L0.628772 9.91355C0.227047 10.176 -0.169071 9.77984 0.0933411 9.37812Z" fill="url(#paint1_linear_26012_150033)"/>
<path id="Vector_3" d="M1.47239 9.36308L0.628777 9.91416C0.22713 10.1767 -0.169145 9.78041 0.0933846 9.37878L0.644463 8.53516L1.47239 9.36308Z" fill="url(#paint2_linear_26012_150033)"/>
<path id="Vector_4" d="M1.90918 6.5989L3.40838 8.09808L5.04242 7.03069L2.97657 4.96484L1.90918 6.5989Z" fill="url(#paint3_linear_26012_150033)"/>
</g>
<g id="Group_4">
<path id="Vector_5" d="M1.57043 9.56869C1.69467 9.49414 1.71577 9.32267 1.61331 9.22022L0.786472 8.39338C0.684021 8.29093 0.51255 8.31202 0.438001 8.43626C0.385413 8.52391 0.399217 8.63608 0.471491 8.70836L1.29833 9.5352C1.37061 9.60748 1.48281 9.62128 1.57043 9.56869Z" fill="url(#paint4_linear_26012_150033)"/>
</g>
</g>
<g id="Group_5">
<g id="Group_6">
<path id="Vector_6" d="M9.70464 4.44815C9.81504 4.29995 9.68202 4.09264 9.50239 4.13519C9.32006 4.1786 9.13368 4.2046 8.9457 4.21315C8.9551 4.19491 8.96447 4.17682 8.9739 4.1586C9.23759 3.64711 9.50566 3.13931 9.93108 2.93268C10.0266 2.88576 10.0003 2.74462 9.89427 2.73719C9.75111 2.72774 9.57588 2.73213 9.38547 2.7544C9.31625 2.76284 9.25919 2.70038 9.27337 2.63219L9.61741 0.950482C9.68425 0.625678 9.39727 0.338697 9.07249 0.40556L7.71692 0.682737C7.65884 0.694894 7.60349 0.654384 7.5947 0.595639C7.56094 0.368756 7.47249 0.16956 7.35431 0.0338347C7.30096 -0.02693 7.20408 -0.00161624 7.18112 0.0760308C7.08117 0.418384 6.44745 0.72258 5.86945 1.01834C5.85125 1.02766 5.83343 1.03693 5.81535 1.04625C5.82753 0.844541 5.8588 0.644756 5.91008 0.449658C5.95666 0.272756 5.76286 0.130952 5.60923 0.23056C5.48533 0.311247 5.37831 0.392619 5.29661 0.474325C5.29796 0.476364 5.29931 0.478384 5.29998 0.480403C4.67402 1.02736 4.31039 1.81436 4.27361 2.62701C4.2378 3.41707 4.51129 4.23209 5.15278 4.87356C5.68927 5.41005 6.34696 5.68893 7.0097 5.74531C7.13462 5.75611 7.25988 5.75848 7.38447 5.75342C7.92062 5.7318 8.44664 5.56772 8.90041 5.27938C9.09557 5.20174 9.44264 4.79997 9.70464 4.44815Z" fill="url(#paint5_linear_26012_150033)"/>
<path id="Vector_7" d="M8.40349 4.44819C8.47917 4.34658 8.38798 4.20444 8.26482 4.23362C8.1398 4.26338 8.01201 4.28121 7.88315 4.28707C7.88958 4.27456 7.89601 4.26215 7.90249 4.24968C8.08327 3.89899 8.26707 3.55084 8.55874 3.40917C8.62425 3.37699 8.60619 3.28023 8.53351 3.27513C8.43535 3.26864 8.31521 3.27166 8.18466 3.28693C8.13721 3.29272 8.09809 3.24989 8.1078 3.20315L8.34368 2.05013C8.38951 1.82744 8.19276 1.63068 7.97007 1.67652L7.04066 1.86656C7.00084 1.87489 6.96288 1.84713 6.95688 1.80684C6.93372 1.65127 6.87307 1.5147 6.79205 1.42164C6.75549 1.37997 6.68905 1.39733 6.67331 1.45058C6.6048 1.68531 6.17029 1.89387 5.774 2.09666C5.76152 2.10305 5.74929 2.1094 5.73692 2.11578C5.74527 1.97748 5.7667 1.8405 5.80186 1.70676C5.8338 1.58546 5.70092 1.48825 5.5956 1.55654C5.51066 1.61185 5.43727 1.66764 5.38125 1.72366C5.38217 1.72505 5.38311 1.72644 5.38356 1.72784C4.95439 2.10284 4.70507 2.64242 4.67986 3.1996C4.65531 3.74129 4.84282 4.30007 5.28264 4.73989C5.65047 5.10772 6.10139 5.29893 6.5558 5.33758C6.64145 5.34499 6.72733 5.34662 6.81274 5.34315C7.18033 5.32833 7.541 5.21582 7.85211 5.01815C7.9859 4.96487 8.22386 4.6894 8.40349 4.44819Z" fill="url(#paint6_linear_26012_150033)"/>
<path id="Vector_8" d="M7.11083 4.06911C6.78746 4.39248 6.26317 4.39248 5.9398 4.06911C5.61642 3.74573 5.61642 3.22144 5.9398 2.89807C6.26317 2.57469 7.12472 2.23744 7.44809 2.56081C7.77146 2.88418 7.43421 3.74573 7.11083 4.06911Z" fill="url(#paint7_linear_26012_150033)"/>
<g id="Group_7">
<path id="Vector_9" d="M9.70466 4.44972C9.81506 4.30152 9.68204 4.09421 9.50241 4.13676C9.32008 4.18017 9.1337 4.20617 8.94572 4.21472C8.95511 4.19648 8.96449 4.17836 8.97392 4.16017C9.09619 3.92297 9.21945 3.68664 9.35886 3.48072L6.54261 0.664461C6.33359 0.785461 6.09725 0.903343 5.86945 1.01991C5.85125 1.02923 5.83343 1.0385 5.81535 1.04781C5.82753 0.846108 5.8588 0.646324 5.91008 0.451245C5.95666 0.274343 5.76286 0.13254 5.60923 0.232147C5.48533 0.312834 5.37831 0.394206 5.2966 0.475912C5.29796 0.477951 5.29931 0.479971 5.29998 0.481991C4.67402 1.02895 4.31039 1.81595 4.27361 2.6286C4.2378 3.41866 4.51129 4.23368 5.15278 4.87515C5.68927 5.41164 6.34696 5.69052 7.0097 5.74689C7.13462 5.7577 7.25988 5.76007 7.38447 5.75501C7.92062 5.73338 8.44664 5.5693 8.90041 5.28097C9.09559 5.2033 9.44266 4.80154 9.70466 4.44972Z" fill="url(#paint8_linear_26012_150033)"/>
<path id="Vector_10" d="M9.89445 2.73999C9.7513 2.73053 9.57606 2.73493 9.38565 2.7572C9.31644 2.76563 9.25938 2.70318 9.27355 2.63499L9.61759 0.953279C9.65896 0.752299 9.56477 0.565887 9.41002 0.46875L5.0791 4.79967C5.10322 4.82546 5.12771 4.85108 5.15298 4.87636C5.68947 5.41285 6.34716 5.69173 7.00991 5.7481C7.13483 5.75891 7.26008 5.76128 7.38467 5.75622C7.92083 5.73459 8.44685 5.57052 8.90061 5.28218C9.09575 5.20451 9.44283 4.80275 9.70485 4.45095C9.81524 4.30275 9.68222 4.09544 9.50259 4.13799C9.32026 4.1814 9.13389 4.2074 8.94591 4.21595C8.9553 4.19771 8.96467 4.17959 8.9741 4.1614C9.23779 3.64989 9.50587 3.1421 9.93128 2.93548C10.0268 2.88855 10.0005 2.74742 9.89445 2.73999Z" fill="url(#paint9_linear_26012_150033)"/>
</g>
</g>
<g id="Group_8">
<path id="Vector_11" d="M4.69202 6.94141L3.06584 5.31523C2.78665 5.03604 2.78665 4.58339 3.06584 4.30419C3.15372 4.21631 3.2962 4.21631 3.38408 4.30419L5.70306 6.62317C5.79094 6.71106 5.79094 6.85353 5.70306 6.94141C5.42386 7.2206 4.97122 7.2206 4.69202 6.94141Z" fill="url(#paint10_linear_26012_150033)"/>
<path id="Vector_12" d="M4.69248 6.94209C4.97168 7.22125 5.4243 7.22125 5.7035 6.94207C5.79138 6.85419 5.79138 6.71172 5.7035 6.62383L4.39217 5.3125L3.72754 5.97713L4.69248 6.94209Z" fill="url(#paint11_linear_26012_150033)"/>
<path id="Vector_13" d="M8.45332 5.79341L7.71726 6.52947C7.59777 6.64896 7.46714 6.75675 7.32683 6.8511C6.96509 7.09492 6.60691 7.183 6.37763 7.08479C6.31522 7.05804 6.24512 7.04267 6.16907 7.03814C5.65354 7.00741 5.16416 6.80124 4.79899 6.43606L3.57195 5.20902C3.20677 4.84384 3.00059 4.35447 2.96987 3.83894C2.96534 3.76288 2.94997 3.69279 2.92322 3.63037C2.8741 3.51588 2.87154 3.36884 2.91181 3.20553C2.95193 3.04208 3.03514 2.86206 3.15693 2.68118C3.25128 2.54084 3.35907 2.41022 3.47856 2.29075L4.21461 1.55469L8.45332 5.79341Z" fill="url(#paint12_linear_26012_150033)"/>
<g id="Group_9">
<path id="Vector_14" d="M4.40096 1.74219L4.27218 1.87097C4.19834 1.94481 4.19834 2.06454 4.27218 2.13838C4.34602 2.21223 4.46575 2.21223 4.53959 2.13838L4.66838 2.0096L4.40096 1.74219Z" fill="url(#paint13_linear_26012_150033)"/>
<path id="Vector_15" d="M4.85018 2.19141L4.7214 2.32019C4.64755 2.39403 4.64755 2.51376 4.7214 2.5876C4.79524 2.66145 4.91497 2.66145 4.98881 2.5876L5.11759 2.45882L4.85018 2.19141Z" fill="url(#paint14_linear_26012_150033)"/>
<path id="Vector_16" d="M5.30038 2.64062L5.17159 2.76941C5.09775 2.84325 5.09775 2.96298 5.17159 3.03682C5.24544 3.11066 5.36516 3.11066 5.43901 3.03682L5.56779 2.90804L5.30038 2.64062Z" fill="url(#paint15_linear_26012_150033)"/>
<path id="Vector_17" d="M5.7496 3.08984L5.62081 3.21863C5.54697 3.29247 5.54697 3.4122 5.62081 3.48604C5.69466 3.55988 5.81438 3.55988 5.88822 3.48604L6.01701 3.35726L5.7496 3.08984Z" fill="url(#paint16_linear_26012_150033)"/>
<path id="Vector_18" d="M6.19979 3.53906L6.07101 3.66785C5.99716 3.74169 5.99716 3.86142 6.07101 3.93526C6.14485 4.0091 6.26458 4.0091 6.33842 3.93526L6.4672 3.80647L6.19979 3.53906Z" fill="url(#paint17_linear_26012_150033)"/>
<path id="Vector_19" d="M6.64901 3.99219L6.52023 4.12097C6.44638 4.19481 6.44638 4.31454 6.52023 4.38838C6.59407 4.46223 6.71379 4.46223 6.78764 4.38838L6.91642 4.2596L6.64901 3.99219Z" fill="url(#paint18_linear_26012_150033)"/>
<path id="Vector_20" d="M7.09921 4.44141L6.97042 4.57019C6.89658 4.64403 6.89658 4.76376 6.97042 4.8376C7.04426 4.91145 7.16399 4.91145 7.23783 4.8376L7.36662 4.70882L7.09921 4.44141Z" fill="url(#paint19_linear_26012_150033)"/>
<path id="Vector_21" d="M7.54842 4.89062L7.41964 5.01941C7.3458 5.09325 7.3458 5.21298 7.41964 5.28682C7.49348 5.36066 7.61321 5.36066 7.68705 5.28682L7.81584 5.15804L7.54842 4.89062Z" fill="url(#paint20_linear_26012_150033)"/>
<path id="Vector_22" d="M7.99862 5.33984L7.86984 5.46863C7.79599 5.54247 7.79599 5.6622 7.86984 5.73604C7.94368 5.80988 8.0634 5.80988 8.13725 5.73604L8.26603 5.60726L7.99862 5.33984Z" fill="url(#paint21_linear_26012_150033)"/>
</g>
<path id="Vector_23" d="M8.45325 5.79341L8.1489 6.09777L7.93463 5.88349C7.84649 5.79535 7.70357 5.79535 7.61543 5.88349C7.48155 6.01737 7.26451 6.01737 7.13063 5.88349L6.71806 5.47092C6.58425 5.33712 6.58425 5.1202 6.71806 4.98641L6.7182 4.98628C6.80633 4.89814 6.80633 4.75522 6.7182 4.66708L6.63782 4.58671C6.54969 4.49857 6.40676 4.49857 6.31863 4.58671C6.18474 4.72059 5.96771 4.72059 5.83382 4.58671L5.42125 4.17414C5.28737 4.04026 5.28737 3.82322 5.42125 3.68933C5.50939 3.6012 5.50939 3.45828 5.42125 3.37014L5.34088 3.28977C5.25274 3.20163 5.10982 3.20163 5.02169 3.28977C4.8878 3.42365 4.67076 3.42365 4.53688 3.28977L4.12445 2.87733C3.99069 2.74357 3.99082 2.52616 4.12445 2.39253C4.21259 2.30439 4.21259 2.16147 4.12445 2.07333L3.91016 1.85904L4.21451 1.55469L8.45325 5.79341Z" fill="url(#paint22_linear_26012_150033)"/>
<path id="Vector_24" d="M6.5724 7.12623L6.73357 6.96505C6.83652 6.86211 6.83652 6.6946 6.73357 6.59164L6.41573 6.2738C6.31279 6.17086 6.14528 6.17086 6.04234 6.2738L5.72948 6.58666L5.42161 6.2788L5.73448 5.96593C5.83742 5.86299 5.83742 5.69548 5.73448 5.59254L5.41661 5.27468C5.31367 5.17174 5.14616 5.17174 5.04322 5.27468L4.73036 5.58754L4.42248 5.27966L4.73534 4.9668C4.83828 4.86386 4.83828 4.69635 4.73534 4.5934L4.41748 4.27554C4.31453 4.1726 4.14702 4.1726 4.04408 4.27554L3.73122 4.58841L3.42336 4.28054L3.73622 3.96768C3.83916 3.86474 3.83916 3.69723 3.73622 3.59427L3.41838 3.27642C3.31544 3.17348 3.14793 3.17348 3.04497 3.27642L2.88379 3.4376C2.88546 3.5094 2.89834 3.57509 2.92299 3.63262C2.9383 3.66835 2.94967 3.7067 2.95763 3.74713L3.23165 3.47311L3.53951 3.78097L3.22667 4.09384C3.12373 4.19678 3.12373 4.36429 3.22667 4.46723L3.54453 4.78509C3.64748 4.88803 3.81499 4.88803 3.91793 4.78509L4.23079 4.47223L4.53865 4.78009L4.22579 5.09295C4.12285 5.1959 4.12285 5.36341 4.22579 5.46637L4.54365 5.78423C4.64659 5.88717 4.8141 5.88717 4.91706 5.78423L5.22993 5.47137L5.53779 5.77923L5.22493 6.09209C5.12199 6.19503 5.12199 6.36254 5.22493 6.46548L5.54279 6.78335C5.64573 6.88629 5.81324 6.88629 5.91618 6.78335L6.22904 6.47048L6.53691 6.77835L6.26289 7.05237C6.30332 7.06033 6.34167 7.0717 6.3774 7.08701C6.43491 7.11168 6.50059 7.12456 6.5724 7.12623Z" fill="url(#paint23_linear_26012_150033)"/>
<path id="Vector_25" d="M8.45284 5.79343L7.71678 6.52949C7.59729 6.64898 7.46666 6.75677 7.32635 6.85112C6.9646 7.09494 6.60643 7.18302 6.37715 7.08481C6.31476 7.05812 6.24452 7.04269 6.16858 7.03812C5.65309 7.00743 5.16372 6.80128 4.79854 6.43612L4.16113 5.79871V1.60765L4.21409 1.55469L8.45284 5.79343Z" fill="url(#paint24_linear_26012_150033)"/>
<path id="Vector_26" d="M4.18555 5.82427L4.79906 6.43778C5.16423 6.80296 5.65361 7.00913 6.16914 7.03986C6.24519 7.04439 6.31529 7.05976 6.3777 7.08651C6.60698 7.18472 6.96516 7.09664 7.3269 6.85282C7.46723 6.75845 7.59786 6.65068 7.71733 6.53119L8.45339 5.79513L6.33404 3.67578L4.18555 5.82427Z" fill="url(#paint25_linear_26012_150033)"/>
<path id="Vector_27" d="M8.24533 5.78785L4.22051 1.76303C4.13353 1.67605 4.13353 1.53503 4.22051 1.44805C4.30749 1.36107 4.44851 1.36107 4.53549 1.44805L8.56031 5.47287C8.64729 5.55985 8.64729 5.70087 8.56031 5.78785C8.47333 5.87483 8.33231 5.87483 8.24533 5.78785Z" fill="url(#paint26_linear_26012_150033)"/>
<path id="Vector_28" d="M3.22791 2.58203C3.20348 2.61489 3.17978 2.64831 3.15691 2.68233C3.03515 2.86321 2.95191 3.04321 2.9118 3.20668C2.87154 3.36999 2.87411 3.51703 2.92321 3.63152C2.94995 3.69393 2.96533 3.76403 2.96985 3.84009C3.00058 4.35562 3.20676 4.84499 3.57193 5.21017L4.79897 6.43721C5.16415 6.80238 5.65352 7.00856 6.16905 7.03929C6.24511 7.04382 6.31521 7.05919 6.37762 7.08593C6.60689 7.18415 6.96507 7.09607 7.32682 6.85225C7.36084 6.82936 7.39427 6.80568 7.42711 6.78125L3.22791 2.58203Z" fill="url(#paint27_linear_26012_150033)"/>
</g>
</g>
</g>
</g>
<defs>
<linearGradient id="paint0_linear_26012_150033" x1="1.29229" y1="7.16984" x2="3.10726" y2="8.98481" gradientUnits="userSpaceOnUse">
<stop stop-color="#FFF9F6"/>
<stop offset="0.1972" stop-color="#F8F2EF"/>
<stop offset="0.4925" stop-color="#E6DDDB"/>
<stop offset="0.8474" stop-color="#C8BCBB"/>
<stop offset="1" stop-color="#B9ACAC"/>
</linearGradient>
<linearGradient id="paint1_linear_26012_150033" x1="2.17354" y1="7.8112" x2="2.83786" y2="8.73795" gradientUnits="userSpaceOnUse">
<stop stop-color="#9E9797" stop-opacity="0"/>
<stop offset="0.3107" stop-color="#979090" stop-opacity="0.311"/>
<stop offset="0.7858" stop-color="#817A7A" stop-opacity="0.786"/>
<stop offset="1" stop-color="#766E6E"/>
</linearGradient>
<linearGradient id="paint2_linear_26012_150033" x1="0.521855" y1="9.48571" x2="0.982169" y2="9.02539" gradientUnits="userSpaceOnUse">
<stop stop-color="#9E9797" stop-opacity="0"/>
<stop offset="0.3107" stop-color="#979090" stop-opacity="0.311"/>
<stop offset="0.7858" stop-color="#817A7A" stop-opacity="0.786"/>
<stop offset="1" stop-color="#766E6E"/>
</linearGradient>
<linearGradient id="paint3_linear_26012_150033" x1="3.09707" y1="6.90908" x2="4.03414" y2="5.97201" gradientUnits="userSpaceOnUse">
<stop stop-color="#9E9797" stop-opacity="0"/>
<stop offset="0.3107" stop-color="#979090" stop-opacity="0.311"/>
<stop offset="0.7858" stop-color="#817A7A" stop-opacity="0.786"/>
<stop offset="1" stop-color="#766E6E"/>
</linearGradient>
<linearGradient id="paint4_linear_26012_150033" x1="1.14505" y1="8.86056" x2="0.854248" y2="9.15136" gradientUnits="userSpaceOnUse">
<stop stop-color="#FFF9F6"/>
<stop offset="0.1972" stop-color="#F8F2EF"/>
<stop offset="0.4925" stop-color="#E6DDDB"/>
<stop offset="0.8474" stop-color="#C8BCBB"/>
<stop offset="1" stop-color="#B9ACAC"/>
</linearGradient>
<linearGradient id="paint5_linear_26012_150033" x1="6.49537" y1="0.98505" x2="7.38966" y2="3.11148" gradientUnits="userSpaceOnUse">
<stop stop-color="#FEF0AE"/>
<stop offset="0.1262" stop-color="#FEEFA9"/>
<stop offset="0.2811" stop-color="#FDEC9A"/>
<stop offset="0.451" stop-color="#FDE681"/>
<stop offset="0.6318" stop-color="#FCDD5E"/>
<stop offset="0.819" stop-color="#FBD232"/>
<stop offset="1" stop-color="#FAC600"/>
</linearGradient>
<linearGradient id="paint6_linear_26012_150033" x1="5.82582" y1="3.47027" x2="9.82694" y2="3.05956" gradientUnits="userSpaceOnUse">
<stop stop-color="#FEA613" stop-opacity="0"/>
<stop offset="0.2409" stop-color="#FDA315" stop-opacity="0.241"/>
<stop offset="0.4349" stop-color="#FB991A" stop-opacity="0.435"/>
<stop offset="0.6125" stop-color="#F88822" stop-opacity="0.613"/>
<stop offset="0.7804" stop-color="#F2702E" stop-opacity="0.78"/>
<stop offset="0.94" stop-color="#EC523D" stop-opacity="0.94"/>
<stop offset="1" stop-color="#E94444"/>
</linearGradient>
<linearGradient id="paint7_linear_26012_150033" x1="6.20742" y1="1.24842" x2="6.80362" y2="3.97105" gradientUnits="userSpaceOnUse">
<stop stop-color="#FEA613" stop-opacity="0"/>
<stop offset="0.2409" stop-color="#FDA315" stop-opacity="0.241"/>
<stop offset="0.4349" stop-color="#FB991A" stop-opacity="0.435"/>
<stop offset="0.6125" stop-color="#F88822" stop-opacity="0.613"/>
<stop offset="0.7804" stop-color="#F2702E" stop-opacity="0.78"/>
<stop offset="0.94" stop-color="#EC523D" stop-opacity="0.94"/>
<stop offset="1" stop-color="#E94444"/>
</linearGradient>
<linearGradient id="paint8_linear_26012_150033" x1="7.1461" y1="2.86442" x2="6.45025" y2="3.56027" gradientUnits="userSpaceOnUse">
<stop stop-color="#FEA613" stop-opacity="0"/>
<stop offset="0.2409" stop-color="#FDA315" stop-opacity="0.241"/>
<stop offset="0.4349" stop-color="#FB991A" stop-opacity="0.435"/>
<stop offset="0.6125" stop-color="#F88822" stop-opacity="0.613"/>
<stop offset="0.7804" stop-color="#F2702E" stop-opacity="0.78"/>
<stop offset="0.94" stop-color="#EC523D" stop-opacity="0.94"/>
<stop offset="1" stop-color="#E94444"/>
</linearGradient>
<linearGradient id="paint9_linear_26012_150033" x1="7.68212" y1="3.07593" x2="9.43096" y2="4.87777" gradientUnits="userSpaceOnUse">
<stop stop-color="#FEA613" stop-opacity="0"/>
<stop offset="0.2409" stop-color="#FDA315" stop-opacity="0.241"/>
<stop offset="0.4349" stop-color="#FB991A" stop-opacity="0.435"/>
<stop offset="0.6125" stop-color="#F88822" stop-opacity="0.613"/>
<stop offset="0.7804" stop-color="#F2702E" stop-opacity="0.78"/>
<stop offset="0.94" stop-color="#EC523D" stop-opacity="0.94"/>
<stop offset="1" stop-color="#E94444"/>
</linearGradient>
<linearGradient id="paint10_linear_26012_150033" x1="4.35067" y1="5.65549" x2="3.782" y2="6.22417" gradientUnits="userSpaceOnUse">
<stop stop-color="#FFF9F6"/>
<stop offset="0.1972" stop-color="#F8F2EF"/>
<stop offset="0.4925" stop-color="#E6DDDB"/>
<stop offset="0.8474" stop-color="#C8BCBB"/>
<stop offset="1" stop-color="#B9ACAC"/>
</linearGradient>
<linearGradient id="paint11_linear_26012_150033" x1="4.95861" y1="6.54836" x2="5.55101" y2="7.14076" gradientUnits="userSpaceOnUse">
<stop stop-color="#9E9797" stop-opacity="0"/>
<stop offset="0.3107" stop-color="#979090" stop-opacity="0.311"/>
<stop offset="0.7858" stop-color="#817A7A" stop-opacity="0.786"/>
<stop offset="1" stop-color="#766E6E"/>
</linearGradient>
<linearGradient id="paint12_linear_26012_150033" x1="3.9893" y1="3.47692" x2="6.13752" y2="5.62513" gradientUnits="userSpaceOnUse">
<stop stop-color="#FFF9F6"/>
<stop offset="0.1972" stop-color="#F8F2EF"/>
<stop offset="0.4925" stop-color="#E6DDDB"/>
<stop offset="0.8474" stop-color="#C8BCBB"/>
<stop offset="1" stop-color="#B9ACAC"/>
</linearGradient>
<linearGradient id="paint13_linear_26012_150033" x1="4.59068" y1="2.19368" x2="4.252" y2="1.855" gradientUnits="userSpaceOnUse">
<stop stop-color="#FFF9F6"/>
<stop offset="0.1972" stop-color="#F8F2EF"/>
<stop offset="0.4925" stop-color="#E6DDDB"/>
<stop offset="0.8474" stop-color="#C8BCBB"/>
<stop offset="1" stop-color="#B9ACAC"/>
</linearGradient>
<linearGradient id="paint14_linear_26012_150033" x1="5.03982" y1="2.64284" x2="4.70115" y2="2.30417" gradientUnits="userSpaceOnUse">
<stop stop-color="#FFF9F6"/>
<stop offset="0.1972" stop-color="#F8F2EF"/>
<stop offset="0.4925" stop-color="#E6DDDB"/>
<stop offset="0.8474" stop-color="#C8BCBB"/>
<stop offset="1" stop-color="#B9ACAC"/>
</linearGradient>
<linearGradient id="paint15_linear_26012_150033" x1="5.48995" y1="3.092" x2="5.15127" y2="2.75332" gradientUnits="userSpaceOnUse">
<stop stop-color="#FFF9F6"/>
<stop offset="0.1972" stop-color="#F8F2EF"/>
<stop offset="0.4925" stop-color="#E6DDDB"/>
<stop offset="0.8474" stop-color="#C8BCBB"/>
<stop offset="1" stop-color="#B9ACAC"/>
</linearGradient>
<linearGradient id="paint16_linear_26012_150033" x1="5.9391" y1="3.54114" x2="5.60043" y2="3.20247" gradientUnits="userSpaceOnUse">
<stop stop-color="#FFF9F6"/>
<stop offset="0.1972" stop-color="#F8F2EF"/>
<stop offset="0.4925" stop-color="#E6DDDB"/>
<stop offset="0.8474" stop-color="#C8BCBB"/>
<stop offset="1" stop-color="#B9ACAC"/>
</linearGradient>
<linearGradient id="paint17_linear_26012_150033" x1="6.38922" y1="3.99028" x2="6.05055" y2="3.65162" gradientUnits="userSpaceOnUse">
<stop stop-color="#FFF9F6"/>
<stop offset="0.1972" stop-color="#F8F2EF"/>
<stop offset="0.4925" stop-color="#E6DDDB"/>
<stop offset="0.8474" stop-color="#C8BCBB"/>
<stop offset="1" stop-color="#B9ACAC"/>
</linearGradient>
<linearGradient id="paint18_linear_26012_150033" x1="6.83837" y1="4.44335" x2="6.49971" y2="4.10468" gradientUnits="userSpaceOnUse">
<stop stop-color="#FFF9F6"/>
<stop offset="0.1972" stop-color="#F8F2EF"/>
<stop offset="0.4925" stop-color="#E6DDDB"/>
<stop offset="0.8474" stop-color="#C8BCBB"/>
<stop offset="1" stop-color="#B9ACAC"/>
</linearGradient>
<linearGradient id="paint19_linear_26012_150033" x1="7.28849" y1="4.89249" x2="6.94983" y2="4.55382" gradientUnits="userSpaceOnUse">
<stop stop-color="#FFF9F6"/>
<stop offset="0.1972" stop-color="#F8F2EF"/>
<stop offset="0.4925" stop-color="#E6DDDB"/>
<stop offset="0.8474" stop-color="#C8BCBB"/>
<stop offset="1" stop-color="#B9ACAC"/>
</linearGradient>
<linearGradient id="paint20_linear_26012_150033" x1="7.73765" y1="5.34165" x2="7.39897" y2="5.00297" gradientUnits="userSpaceOnUse">
<stop stop-color="#FFF9F6"/>
<stop offset="0.1972" stop-color="#F8F2EF"/>
<stop offset="0.4925" stop-color="#E6DDDB"/>
<stop offset="0.8474" stop-color="#C8BCBB"/>
<stop offset="1" stop-color="#B9ACAC"/>
</linearGradient>
<linearGradient id="paint21_linear_26012_150033" x1="8.18777" y1="5.79079" x2="7.8491" y2="5.45212" gradientUnits="userSpaceOnUse">
<stop stop-color="#FFF9F6"/>
<stop offset="0.1972" stop-color="#F8F2EF"/>
<stop offset="0.4925" stop-color="#E6DDDB"/>
<stop offset="0.8474" stop-color="#C8BCBB"/>
<stop offset="1" stop-color="#B9ACAC"/>
</linearGradient>
<linearGradient id="paint22_linear_26012_150033" x1="5.68175" y1="-7.78029" x2="6.45252" y2="10.1187" gradientUnits="userSpaceOnUse">
<stop stop-color="#9E9797" stop-opacity="0"/>
<stop offset="0.3107" stop-color="#979090" stop-opacity="0.311"/>
<stop offset="0.7858" stop-color="#817A7A" stop-opacity="0.786"/>
<stop offset="1" stop-color="#766E6E"/>
</linearGradient>
<linearGradient id="paint23_linear_26012_150033" x1="-0.725731" y1="-0.176555" x2="7.45361" y2="8.00278" gradientUnits="userSpaceOnUse">
<stop stop-color="#9E9797" stop-opacity="0"/>
<stop offset="0.3107" stop-color="#979090" stop-opacity="0.311"/>
<stop offset="0.7858" stop-color="#817A7A" stop-opacity="0.786"/>
<stop offset="1" stop-color="#766E6E"/>
</linearGradient>
<linearGradient id="paint24_linear_26012_150033" x1="5.34952" y1="4.65692" x2="6.41031" y2="3.59613" gradientUnits="userSpaceOnUse">
<stop stop-color="#9E9797" stop-opacity="0"/>
<stop offset="0.3107" stop-color="#979090" stop-opacity="0.311"/>
<stop offset="0.7858" stop-color="#817A7A" stop-opacity="0.786"/>
<stop offset="1" stop-color="#766E6E"/>
</linearGradient>
<linearGradient id="paint25_linear_26012_150033" x1="5.67368" y1="5.16294" x2="7.37372" y2="6.86298" gradientUnits="userSpaceOnUse">
<stop stop-color="#9E9797" stop-opacity="0"/>
<stop offset="0.3107" stop-color="#979090" stop-opacity="0.311"/>
<stop offset="0.7858" stop-color="#817A7A" stop-opacity="0.786"/>
<stop offset="1" stop-color="#766E6E"/>
</linearGradient>
<linearGradient id="paint26_linear_26012_150033" x1="6.49138" y1="3.51515" x2="6.20057" y2="3.80596" gradientUnits="userSpaceOnUse">
<stop stop-color="#FFF9F6"/>
<stop offset="0.1972" stop-color="#F8F2EF"/>
<stop offset="0.4925" stop-color="#E6DDDB"/>
<stop offset="0.8474" stop-color="#C8BCBB"/>
<stop offset="1" stop-color="#B9ACAC"/>
</linearGradient>
<linearGradient id="paint27_linear_26012_150033" x1="4.97061" y1="5.03746" x2="4.02046" y2="5.98761" gradientUnits="userSpaceOnUse">
<stop stop-color="#9E9797" stop-opacity="0"/>
<stop offset="0.3107" stop-color="#979090" stop-opacity="0.311"/>
<stop offset="0.7858" stop-color="#817A7A" stop-opacity="0.786"/>
<stop offset="1" stop-color="#766E6E"/>
</linearGradient>
<clipPath id="clip0_26012_150033">
<rect width="10" height="10" fill="white"/>
</clipPath>
</defs>
</svg>
