<svg width="16" height="16" viewBox="0 0 16 16" fill="none" xmlns="http://www.w3.org/2000/svg">
<g id="call-3d54f2c5ae159297cdd88a2cc4ebb4e626150d5633a77a9bfa84b626e39ab985 1" clip-path="url(#clip0_444_2433)">
<path id="Vector" fill-rule="evenodd" clip-rule="evenodd" d="M12.2947 9.4993C11.638 9.09823 10.792 9.1993 10.2475 9.74321L9.40192 10.5893C7.08527 10.0188 5.65917 8.60652 5.14028 6.33707L5.99083 5.48653C6.53472 4.94209 6.63583 4.09596 6.23472 3.4393C5.85805 2.82208 5.31527 1.93375 4.87694 1.21597C4.61083 0.779861 4.15917 0.489853 3.65194 0.429297C3.14472 0.368742 2.63749 0.544298 2.27583 0.905962L0.975832 2.20598C0.447498 2.73376 0.219718 3.49209 0.370274 4.22431V4.22653C1.64194 10.3005 5.34305 14.0149 11.498 15.3487L11.4997 15.3493C12.2353 15.5065 13.0002 15.2805 13.532 14.7487C13.9091 14.3771 14.398 13.8882 14.8281 13.4582C15.1897 13.0965 15.3653 12.5893 15.3047 12.0821C15.2441 11.5749 14.9542 11.1232 14.518 10.8571C13.8002 10.4188 12.912 9.87654 12.2947 9.4993Z" fill="#7D7D7D"/>
</g>
<defs>
<clipPath id="clip0_444_2433">
<rect width="16" height="16" fill="white"/>
</clipPath>
</defs>
</svg>
